<svg xmlns="http://www.w3.org/2000/svg" width="1024" height="1024"><path fill="#ffffff" d="M419.418 171.652c6.355 2.865 10.202 7.731 13.394 13.786 1.017 3.049 1.227 4.517 1.25 7.562.279 2.895.696 3.776 2.868 5.781 2.647 1.815 5.351 3.514 8.07 5.219 17.239 12.54 29.982 28.336 40 47a332 332 0 0 0 11.318-1.739c12.308-2.077 24.275-2.778 36.745-2.698l2.801.003c15.68.036 30.744 1.287 46.136 4.434l1.167-1.751 3.242-4.86q1.868-2.806 3.724-5.62C600.982 222.668 615.2 203.889 634 197l-.375-3.875c.029-6.134 2.5-10.48 6.375-15.125 6.315-5.306 11.785-7.459 20.02-7.328 6.216.684 10.938 3.06 15.125 7.71 4.97 6.783 7.025 13.2 5.855 21.618-2.733 7.928-6.568 12.416-13.754 16.605-3.663 1.574-6.274 1.796-10.246 1.77l-3.562.023c-3.783-.438-6.149-1.525-9.438-3.398l-2.375-1.187L640 213c-13.394 12.348-23.803 27.222-31 44v2l2.832 1.18C628.291 267.143 643.83 275.048 658 286l2.707 2.031C693.165 313.336 714.795 349.095 727 388l.686 2.148c7.905 25.335 10.995 52.657 12.112 79.08.219 5.899.219 5.899 3.1 10.721l2.477 1.738c17.548 13.23 31.84 32.055 38.125 53.25 1.832 5.92 3.791 8.913 8.383 12.942 11.277 11.298 15.57 28.441 15.804 43.871-.187 21.324-8.376 41.455-22.687 57.25l-2.234 2.516C776.074 658.644 766.838 666.86 757 669c5.028 25.527 11.342 49.985 20.156 74.508A67 67 0 0 1 779 750c-21.611 12.83-43.829 18.69-69.21 14.414-8.035-2.08-13.09-6.569-18.79-12.414-11.343-11.492-24.044-16.196-40.062-16.312-13.204-.01-24.548 2.686-34.938 11.312-2.096 2.49-3.538 5.103-5 8-11.011 20.017-28.268 34.059-50 41l-3.734 1.195c-28.529 8.108-63.938 3.826-89.766-10.57-6.31-3.658-12.007-7.818-17.5-12.625l-2.219-1.785c-8.64-7.165-15.362-16.304-21.281-25.778-4.104-6.027-10.069-8.357-16.984-10.042-18.75-2.941-34.109 5.73-48.956 16.033-14.755 9.997-30.82 11.067-48.15 9.181-8.33-1.782-16.314-5.96-23.41-10.609-1.197-3.591-.74-4.294.66-7.7l1.148-2.875 1.255-3.112c12.41-32.013 16.495-66.331 20.675-100.206.37-2.982.755-5.962 1.137-8.943 1.66-13.295 2.785-26.62 3.813-39.976l.202-2.633q.284-3.724.56-7.45c.055-.744.111-1.489.17-2.256.262-3.624.443-7.215.38-10.849l-3.629-1.469C299.286 556.944 284.821 549.586 271 539l-2.898-2.215c-12.539-9.933-25.096-21.9-32.477-36.285-2.646-4.478-6.782-5.503-11.488-7.223-4.935-2.01-8.938-5.046-13.137-8.277l-3.062-2.187C193.444 470.249 185.638 449.678 184 431c-1.451-24.148 4.925-47.79 20.793-66.54L207 362c.8-.895 1.601-1.79 2.426-2.71 15.432-16.324 38.789-29.519 61.626-30.366 2.13-.022 4.256-.012 6.385.014l2.217.013q2.673.02 5.346.049c0 2 0 2-2.125 4.188l-1.387 1.347c-10.092 9.934-15.348 20.84-15.863 34.965.236 15.576 5.538 30.202 13.375 43.5 5.182-4.442 8.012-10.305 9-17 .367-7.553.416-14.85-1.555-22.191-.565-2.297-.597-4.456-.445-6.809 11.699 1.231 21.234 7.217 28.688 16.125 8.105 11.028 11.678 22.878 11.562 36.375l.023 2.723c-.038 13.34-4.954 25.523-13.832 35.535C311 459 311 459 309 459l1 2.813c1.46 4.996 1.168 10.03 1 15.187a2294 2294 0 0 0 5.75-3.312l3.234-1.864L323 470l2.109-1.188c2.751-2.636 2.711-4.883 3.164-8.628l.27-2.06q.286-2.195.55-4.392c.478-3.893 1.026-7.775 1.575-11.658l.332-2.362c5.377-37.504 18.713-75.864 41-106.712.43-.594.858-1.189 1.3-1.801A212 212 0 0 1 391 310l1.679-1.777c17.03-17.924 36.22-31.738 58.259-42.91l2.025-1.03c2.874-1.41 4.792-2.283 8.037-2.283-6.905-14.505-14.359-28.145-24.875-40.375l-1.659-1.93c-2.668-3.002-4.756-5.028-8.466-6.695l-2.812 1.938c-5.864 3.794-11.386 3.54-18.188 3.062-6.36-1.877-11.643-5.444-15.328-11.004-3.395-6.681-4.068-13.53-1.824-20.707 2.733-6.17 6.37-9.886 12.152-13.289l1.855-1.133c5.278-2.134 12.14-1.678 17.563-.215"/><path fill="#1b1b2b" d="M419.418 171.652c6.355 2.865 10.202 7.731 13.394 13.786 1.017 3.049 1.227 4.517 1.25 7.562.279 2.895.696 3.776 2.868 5.781 2.647 1.815 5.351 3.514 8.07 5.219 17.239 12.54 29.982 28.336 40 47a332 332 0 0 0 11.318-1.739c12.308-2.077 24.275-2.778 36.745-2.698l2.801.003c15.68.036 30.744 1.287 46.136 4.434l1.167-1.751 3.242-4.86q1.868-2.806 3.724-5.62C600.982 222.668 615.2 203.889 634 197l-.375-3.875c.029-6.134 2.5-10.48 6.375-15.125 6.315-5.306 11.785-7.459 20.02-7.328 6.216.684 10.938 3.06 15.125 7.71 4.97 6.783 7.025 13.2 5.855 21.618-2.733 7.928-6.568 12.416-13.754 16.605-3.663 1.574-6.274 1.796-10.246 1.77l-3.562.023c-3.783-.438-6.149-1.525-9.438-3.398l-2.375-1.187L640 213c-13.394 12.348-23.803 27.222-31 44v2l2.832 1.18C628.291 267.143 643.83 275.048 658 286l2.707 2.031C693.165 313.336 714.795 349.095 727 388l.686 2.148c7.905 25.335 10.995 52.657 12.112 79.08.219 5.899.219 5.899 3.1 10.721l2.477 1.738c17.548 13.23 31.84 32.055 38.125 53.25 1.832 5.92 3.791 8.913 8.383 12.942 11.277 11.298 15.57 28.441 15.804 43.871-.187 21.324-8.376 41.455-22.687 57.25l-2.234 2.516C776.074 658.644 766.838 666.86 757 669c5.028 25.527 11.342 49.985 20.156 74.508A67 67 0 0 1 779 750c-21.611 12.83-43.829 18.69-69.21 14.414-8.035-2.08-13.09-6.569-18.79-12.414-11.343-11.492-24.044-16.196-40.062-16.312-13.204-.01-24.548 2.686-34.938 11.312-2.096 2.49-3.538 5.103-5 8-11.011 20.017-28.268 34.059-50 41l-3.734 1.195c-28.529 8.108-63.938 3.826-89.766-10.57-6.31-3.658-12.007-7.818-17.5-12.625l-2.219-1.785c-8.64-7.165-15.362-16.304-21.281-25.778-4.104-6.027-10.069-8.357-16.984-10.042-18.75-2.941-34.109 5.73-48.956 16.033-14.755 9.997-30.82 11.067-48.15 9.181-8.33-1.782-16.314-5.96-23.41-10.609-1.197-3.591-.74-4.294.66-7.7l1.148-2.875 1.255-3.112c12.41-32.013 16.495-66.331 20.675-100.206.37-2.982.755-5.962 1.137-8.943 1.66-13.295 2.785-26.62 3.813-39.976l.202-2.633q.284-3.724.56-7.45c.055-.744.111-1.489.17-2.256.262-3.624.443-7.215.38-10.849l-3.629-1.469C299.286 556.944 284.821 549.586 271 539l-2.898-2.215c-12.539-9.933-25.096-21.9-32.477-36.285-2.646-4.478-6.782-5.503-11.488-7.223-4.935-2.01-8.938-5.046-13.137-8.277l-3.062-2.187C193.444 470.249 185.638 449.678 184 431c-1.451-24.148 4.925-47.79 20.793-66.54L207 362c.8-.895 1.601-1.79 2.426-2.71 15.432-16.324 38.789-29.519 61.626-30.366 2.13-.022 4.256-.012 6.385.014l2.217.013q2.673.02 5.346.049c0 2 0 2-2.125 4.188l-1.387 1.347c-10.092 9.934-15.348 20.84-15.863 34.965.236 15.576 5.538 30.202 13.375 43.5 5.182-4.442 8.012-10.305 9-17 .367-7.553.416-14.85-1.555-22.191-.565-2.297-.597-4.456-.445-6.809 11.699 1.231 21.234 7.217 28.688 16.125 8.105 11.028 11.678 22.878 11.562 36.375l.023 2.723c-.038 13.34-4.954 25.523-13.832 35.535C311 459 311 459 309 459l1 2.813c1.46 4.996 1.168 10.03 1 15.187a2294 2294 0 0 0 5.75-3.312l3.234-1.864L323 470l2.109-1.188c2.751-2.636 2.711-4.883 3.164-8.628l.27-2.06q.286-2.195.55-4.392c.478-3.893 1.026-7.775 1.575-11.658l.332-2.362c5.377-37.504 18.713-75.864 41-106.712.43-.594.858-1.189 1.3-1.801A212 212 0 0 1 391 310l1.679-1.777c17.03-17.924 36.22-31.738 58.259-42.91l2.025-1.03c2.874-1.41 4.792-2.283 8.037-2.283-6.905-14.505-14.359-28.145-24.875-40.375l-1.659-1.93c-2.668-3.002-4.756-5.028-8.466-6.695l-2.812 1.938c-5.864 3.794-11.386 3.54-18.188 3.062-6.36-1.877-11.643-5.444-15.328-11.004-3.395-6.681-4.068-13.53-1.824-20.707 2.733-6.17 6.37-9.886 12.152-13.289l1.855-1.133c5.278-2.134 12.14-1.678 17.563-.215M490 264c-.037 3.4.33 6.01 2 9 3.271 1.815 6.46 2.925 10.031 4.027C505 278 505 278 507 280l-3.84-.105-5.098-.082-2.517-.077c-7.605-.088-14.73 1.261-20.795 6.139l-1.953 1.57c-2.42 2.095-4.668 4.16-6.797 6.555v2h-2q.932-2.409 1.875-4.812l1.055-2.708C468 286 468 286 470 283c-.117-2.241-.117-2.241-.75-4.562l-.547-2.38c-.599-2.248-.599-2.248-2.703-4.058-23.15 10.227-42.718 23.58-61 41l-2.36 2.2c-48.983 46.986-61.208 117.52-66.077 182.113l-.469 5.975a5126 5126 0 0 0-3.348 45.517l-.156 2.238-.311 4.476C325.992 645.83 325.992 645.83 319 682l-1.07 5.786c-2.96 15.967-6.657 31.439-11.807 46.837l-.861 2.674-.802 2.432c-.509 2.512-.419 3.904.54 6.271 6.857 3.76 14.645 4.377 22.313 4.438l2.241.03c5.106-.08 10.056-.682 14.446-3.468 1.645-2.717 1.645-2.717 2.188-6.062l.886-3.786.443-2.035c.854-3.744 1.936-7.424 2.983-11.117l1.281-4.648c.721-2.6 1.47-5.183 2.25-7.766 3.123-10.35 5.196-20.883 7.332-31.473a731 731 0 0 1 1.856-8.765c5.316-24.58 9.427-49.427 12.781-74.348-.508 13.386-1.566 26.588-3.25 39.875l-.333 2.671c-3.984 31.892-8.791 64.427-18.589 95.126-.77 3.092-.984 4.437.172 7.328l2.64-1.758C373.434 729.176 389.423 721.521 410 724c7.42 1.554 14.285 4.53 21 8 6.454-23.232 10.652-46.792 14.594-70.56q.537-3.22 1.082-6.439c3.92-23.488 5.463-47.28 7.324-71.001 1.166 49.267-3.256 99.821-16.484 147.457-.94 4.638-1.107 7.442 1.18 11.7q1.186 1.692 2.429 3.343l1.345 1.821c16.856 22.16 38.404 34.181 65.694 39.269 27.743 2.966 53.146-.96 75.836-17.59 6.191-5.05 11.427-11.855 15-19 .427-7.337-.881-13.65-2.625-20.75-5.521-23.766-9.086-47.877-11.687-72.125l-.247-2.296a449 449 0 0 1-2.504-49.766q.009-2.644.014-5.288.017-6.388.049-12.775l.136 1.987c.488 7.038 1.012 14.072 1.56 21.106q.291 3.727.564 7.455C587.27 658.718 593.603 700.6 606 739l1.547-1.102c13.606-9.408 26.041-14.114 42.578-14.21l2.783-.018c14.533.154 29.273 4.181 40.358 13.912 1.788 1.634 1.788 1.634 4.734 2.418-.93-5.237-2.06-10.308-3.573-15.41-7.97-27.115-12.275-55.525-17.04-83.347q-.541-3.132-1.098-6.261c-4.307-24.536-6.305-49.279-8.371-74.087l-.283-3.367c-.395-4.855-.759-9.652-.635-14.528l.335 2.731q.63 5.114 1.264 10.227.272 2.194.541 4.39.9 7.329 1.86 14.652l.509 3.881.499 3.545.434 3.126c.367 2.612.367 2.612 2.558 4.448l.445-2.457C678.02 574.834 683.262 564.746 693 556a113 113 0 0 1 5.5-3.062c2.72-1.506 4.178-2.326 5.633-5.09.552-2.634.636-4.264-.133-6.848-1.804-1.782-3.709-2.99-5.855-4.336-4.952-3.842-7.315-10.593-8.145-16.664-.11-2.94-.095-5.872-.062-8.812l.013-2.39q.02-2.898.049-5.798l.734 2.781c2.968 10.865 5.449 19.674 15.266 26.219 2.515-.214 3.636-.619 5.387-2.453l1.3-1.797c3.364-4.14 7.315-6.864 12.313-8.75 2.777-.129 2.777-.129 5 0l-1.54 1.18c-6.473 5.262-11.347 11.208-13.335 19.445L715 542l1.758-.875 2.367-1.125 2.32-1.125c2.973-1.018 5.434-1.02 8.555-.875l-2.16 1.398c-8.62 5.871-15.1 12.294-17.84 22.602-.349 2.788-.503 5.569-.625 8.375l-.117 2.23A794 794 0 0 0 709 578c-3.068-5.625-4.89-10.694-6-17-9.211 5.117-14.541 13.202-18 23-2.524 10.29-1.118 20.305 3 30l2 1 .96-2.309c3.62-8.009 7.876-13.547 15.04-18.691 1.065-.345 2.13-.69 3.227-1.047 2.942-1.64 2.942-1.64 3.436-4.248.38-2.97.58-5.9.712-8.893l.207-3.138q.246-3.836.418-7.674c1.932 3.397 2.71 6.702 3.508 10.516l.8 3.789.817 3.945.84 3.992Q720.989 596.12 722 601h1l2-19c2.816 14.082 1.174 29.01-.687 43.125l-.45 3.586C721.66 644.08 716.057 656.206 705 667v2c26.04.916 48.16-4.299 68-22 14.176-13.319 22.717-32.24 24.29-51.55.389-15.929-4.175-30.793-14.727-42.95-10.162-10.506-22.863-17.564-37.688-18.75-2.308 0-4.576.06-6.875.25v-2c4.98-.993 9.758-1.192 14.813-1.187l2.41-.002c5.518.05 10.461.614 15.777 2.189-5.854-22.637-27.137-43.262-46.586-55.05-8.233-4.999-8.233-4.999-17.414-6.95v-2q3.313.468 6.625.938l3.727.527c3.224.473 6.436.987 9.648 1.535 2.14-57.402-18.424-116.604-57-159l-2.04-2.258c-9.808-10.31-21.845-18.407-33.96-25.742l-1.718-1.05a190 190 0 0 0-20.97-11.012l-2.071-.944c-4.01-1.818-4.01-1.818-8.241-.994-1.631 4.38-2.582 8.347-2 13 .887 1.822.887 1.822 2 3.625 2 3.375 2 3.375 2 7.375l-1.11-1.54c-5.554-7.062-13.04-11.61-21.89-13.46a70 70 0 0 0-4.258-.133l-2.394-.004-2.473.012-2.496-.012c-4.325-.119-4.325-.119-8.379 1.137v-2l2.25-.875c2.652-1.017 2.652-1.017 4.625-2.187 2.966-1.31 5.922-1.568 9.125-1.938l2-11c-27.633-6.435-60.7-7.44-88 1"/><path fill="#ffffff" d="M612 274c16.957 5.928 32.464 16.325 46 28l1.608 1.387c36.539 31.864 56.902 77.79 63.775 125.205.306 2.107.626 4.212.947 6.316 1.589 10.58 2.862 21.187 2.732 31.904l-.027 3.02L727 472l-2.54-.434a506 506 0 0 0-10.835-1.628l-3.773-.536L707 469v2l2.02.277c10.777 2.613 20.843 9.436 28.98 16.723l2.406 2.012c9.734 8.332 18.077 17.968 24.719 28.926l1.11 1.824c2.326 4.013 3.66 7.777 4.765 12.238l-3.375-1c-4.949-1.113-9.766-1.192-14.812-1.187l-2.34-.002c-4.26.04-8.279.353-12.473 1.189v2l3.938-.312c14.704.041 28.212 6.664 38.812 16.5 11.66 12.307 16.713 28.128 16.52 44.84-1.373 20.228-10.861 39.136-25.395 53.16C752.509 665.063 729.963 669.697 705 669c1.541-3.252 3.212-5.375 5.75-7.937 8.846-9.89 11.303-21.152 12.958-33.896.263-1.954.585-3.9.913-5.843 2.042-12.66 2.901-26.714.379-39.324l-2 19h-1l-.519-2.507q-.96-4.62-1.935-9.236-.418-1.995-.832-3.992-.597-2.876-1.206-5.75l-.73-3.49c-.673-2.617-1.45-4.69-2.778-7.025l-.025 1.924c-.415 18.22-.415 18.22-4.088 22.592-2.574 1.359-2.574 1.359-5.285 2.43-7.707 3.124-11.42 11.898-14.602 19.054-4.922-4.205-5.698-10.863-6.293-17.04-.323-11.909 3.358-22.03 11.133-31.108 4.457-4.618 4.457-4.618 8.16-5.852l.55 2.45.763 3.237.738 3.2c.942 3.089 2.173 5.431 3.949 8.113l.078-3.184c.446-12.55 2.929-21.509 11.922-30.816 2.88-2.228 5.85-4.178 9-6-5.664.365-10.007 1.055-15 4 .955-8.323 5.625-15.275 11.938-20.687L730 519c-7.246.308-12.645 3.552-17.684 8.73-1.157 1.381-2.246 2.82-3.316 4.27-4.88-.418-6.881-2.321-10-6-4.579-6.938-7.538-14.82-9-23-.668 17.246-.668 17.246 6.594 32.527 2.223 2.328 4.628 3.858 7.406 5.473.318 3.265.166 5.915-1 9-2.52 2.068-5.177 3.538-8.012 5.145-10.004 6.211-15.836 16.735-18.797 27.906A97 97 0 0 0 675 590c-2.531-2.531-2.496-3.954-3-7.469l-.497-3.397L671 575.5l-.526-3.675A747 747 0 0 1 667 543c3.01 62.855 8.94 132.464 30.438 192.11C698 737 698 737 698 740c-3.092-1.42-5.567-3.168-8.25-5.25-4.437-3.151-8.875-5.231-13.937-7.125l-2.015-.759c-16.202-5.787-36.839-4.687-52.259 2.604-5.587 2.73-10.55 5.85-15.539 9.53-5.82-18.358-9.542-37.084-13-56l-.418-2.286c-3.37-18.558-6.03-37.13-7.894-55.902l-.247-2.477c-1.12-11.431-1.883-22.863-2.441-34.335-.778 47.663 3.546 94.744 14.371 141.244 4.196 18.384 4.196 18.384 1.602 23.967-1.522 2.403-3.181 4.58-4.973 6.789l-1.91 2.473c-11.992 14.502-31.058 23.176-49.57 25.312-28.641 2.447-57.314-1.396-80.27-20.015-2.481-2.198-4.874-4.46-7.25-6.77l-2.078-1.89c-5.608-5.255-14.518-13.988-15.14-21.878.242-3.585 1.02-6.647 2.027-10.095 2.257-8.03 3.816-16.114 5.253-24.324l.783-4.417q.76-4.305 1.502-8.614.573-3.325 1.166-6.646c1.57-8.794 2.554-17.563 3.225-26.468l.193-2.532c.32-4.244.621-8.488.892-12.735l.333-4.717.123-2.213c.297-3.995.725-5.84 3.721-8.471l-.02 2.335q-.09 10.987-.135 21.973c-.016 3.764-.037 7.528-.071 11.292-.033 3.644-.05 7.288-.059 10.932a521 521 0 0 1-.032 4.135c-.185 16.182 2.411 33.349 13.11 46.169 12.368 12.127 29.07 18.436 46.289 18.632l3.106-.03 3.285-.023c17.628-.358 32.367-4.738 45.375-17.15 6.838-7.198 9.357-15.936 12.152-25.265l.629-1.996c.573-3.096.561-6.179.558-9.317l.002-2.379c-.05-6.031-.439-12.002-.908-18.014-1.222-15.937-1.506-31.812-1.531-47.794l-.015-3.31c-.075-19.978 1.114-39.699 4.265-59.44l.5-3.367c1.246-8.002 1.246-8.002 3.5-11.383 1.605 6.945 3.04 13.79 3.875 20.875 1.227 9.792 3.371 19.384 5.46 29.023.639 2.98 1.251 5.963 1.856 8.95 2.625 12.782 6.065 25.145 10.01 37.579.912 2.935 1.74 5.888 2.56 8.85 2.33 8.34 5.209 16.466 8.177 24.598l1.233 3.423c2.401 6.473 5.15 12.478 8.597 18.464C629 696 629 696 630 699c1.917 1.167 1.917 1.167 4 2l2 1c7.072 1.101 12.086.554 18-3.625 6.851-5.59 10.594-11.376 11.788-20.258 1.616-16.16-.269-32.463-1.987-48.523-4.86-45.474-4.275-91.43 3.199-136.594h2a1658 1658 0 0 1 3 7.313l.867 2.091C674.09 505.415 675 507.72 675 511h2l.355-3.477c.46-3.676 1.277-7.104 2.308-10.656C695.8 441.147 686.175 380.629 659 330c-3.014-5.235-6.394-10.158-10-15l-1.257-1.715A227 227 0 0 0 630 292l-1.73-1.855c-4.354-4.52-9.17-8.365-14.11-12.227L612 276z"/><path fill="#d5d5d5" d="M531.313 828.813h2.888c29.721.005 59.379.278 89.058 2.026q4.234.248 8.47.486C730.095 836.973 730.095 836.973 750 851c.813 2.688.813 2.688 1 5-19.894 17.659-61.852 16.689-86.75 18.75l-3.68.306c-8.178.669-16.36 1.262-24.548 1.808q-3.05.207-6.097.422c-28.453 1.972-56.901 2.057-85.412 2.03q-7.84-.007-15.679.02C395.22 879.8 395.22 879.8 339.438 865c-.856-.225-1.712-.45-2.593-.68-5.432-1.565-10.436-3.707-14.845-7.32-.875-2.5-.875-2.5 0-5 4.515-4.437 8.713-6.347 14.75-8.062l2.645-.764c11.366-3.119 22.928-4.718 34.605-6.174l1.968-.25c29.22-3.716 58.566-5.23 87.975-6.602 2.794-.135 5.586-.287 8.379-.445 19.645-1.058 39.323-.901 58.99-.89"/><path fill="#22c55e" d="m263 342-1.023 1.871-1.352 2.567-1.336 2.496c-2.904 6.907-3.652 13.815-3.601 21.253l.006 2.477c.126 7.762.79 16.303 4.306 23.336.247 1.664.472 3.332.688 5 1.92 11.887 5.886 23.794 12.312 34l-.586-2.09c-1.646-5.942-3.129-11.88-4.414-17.91 2.77 2.481 4.438 5.225 6.285 8.438l1.858 3.21 1.92 3.352q1.89 3.281 3.785 6.563l1.687 2.94A113 113 0 0 0 287 445v3h2l-.475-1.956c-.705-2.93-1.397-5.861-2.087-8.794l-.749-3.078-.693-2.969-.65-2.73c-.357-2.55-.227-4.071.654-6.473 1.453-1.684 1.453-1.684 3.25-3.437 8.918-9.98 9.791-22.81 10.75-35.563 8.401 4.517 12.988 13.339 16.113 22.113 3.21 14.067 1.835 27.766-5.488 40.227-1.312 1.973-1.312 1.973-3.625 4.66h-2l-1.562-3.625c-2.528-5.1-6.335-8.824-11.438-11.375a82 82 0 0 0 3.563 8.063c3.622 7.402 3.14 14.382.687 22.125-1.612 4.481-3.34 8.058-6.25 11.812a1988 1988 0 0 0-3 4 425 425 0 0 0 4.125-2.187l2.32-1.231c3.13-1.938 5.768-4.178 8.555-6.582.718 13.472-.65 23.867-9 35 6.745-3.118 11.211-6.532 15-13l1-3c2.512-1.281 2.512-1.281 5.688-2.5A136 136 0 0 0 326 482q-.58 9.41-1.172 18.817-.2 3.183-.395 6.367c-.923 14.961-2.06 29.89-3.433 44.816-7.467-.915-7.467-.915-10.762-2.602l-1.932-.974-1.993-1.049-2.117-1.092A559 559 0 0 1 298 543l-3.25-1.734c-15.414-8.61-39.64-25.372-46.75-42.266l3.227-.41c9.612-1.373 21.556-3.373 28.773-10.59l-2.195.402-2.93.536-2.883.527L269 490l-2.887.55c-17.116 2.47-32.962-1.398-46.945-11.62-13.56-11.623-22.433-28.071-24.168-45.93-1.01-14.397-.87-27.68 5-41l.829-1.895c10.379-23.072 29.572-37.87 52.648-47.195 5.885-2.123 5.885-2.123 9.523-.91"/><path fill="#22c55e" d="m759 517 2.313 2.5c2.441 2.84 2.441 2.84 5.687 2.5a875 875 0 0 1 2 4.375l1.125 2.46C771 531 771 531 771 533l-3.375-1c-4.949-1.113-9.766-1.192-14.812-1.187l-2.34-.002c-4.26.04-8.279.353-12.473 1.189v2l3.938-.312c14.704.041 28.212 6.664 38.812 16.5 11.66 12.307 16.713 28.128 16.52 44.84-1.373 20.228-10.861 39.136-25.395 53.16C752.509 665.063 729.963 669.697 705 669c1.541-3.252 3.212-5.375 5.75-7.937 8.846-9.89 11.303-21.152 12.958-33.896.263-1.954.585-3.9.913-5.843 2.042-12.66 2.901-26.714.379-39.324l-2 19h-1l-.519-2.507q-.96-4.62-1.935-9.236-.418-1.995-.832-3.992-.597-2.876-1.206-5.75l-.73-3.49c-.673-2.617-1.45-4.69-2.778-7.025l-.025 1.924c-.415 18.22-.415 18.22-4.088 22.592-2.574 1.359-2.574 1.359-5.285 2.43-7.707 3.124-11.42 11.898-14.602 19.054-4.922-4.205-5.698-10.863-6.293-17.04-.323-11.909 3.358-22.03 11.133-31.108 4.457-4.618 4.457-4.618 8.16-5.852.182.808.364 1.616.55 2.45l.763 3.237.738 3.2c.942 3.089 2.173 5.431 3.949 8.113l.078-3.184c.446-12.55 2.929-21.509 11.922-30.816 2.88-2.228 5.85-4.178 9-6-5.664.365-10.007 1.055-15 4 .53-4.642 1.73-7.847 4.188-11.812.57-.956 1.142-1.91 1.73-2.895 2.628-2.894 4.276-2.905 8.082-3.293l3-2c2.51-.654 4.956-1.211 7.5-1.687l2.15-.408c5.932-1.025 11.405-.95 17.35.095z"/><path fill="#ffffff" d="M451 549h1c.512 3.77 1.007 7.54 1.5 11.313l.434 3.189c.888 6.876 1.252 13.567 1.066 20.498h-1l-.256 3.584C451.557 617.652 448.069 647.283 443 677l-.41 2.417c-3.023 17.75-6.666 35.252-11.59 52.583l-2.055-.988c-14.836-6.966-29.738-9.938-45.882-5.184C372.595 729.834 362.89 735.162 354 742c-1.03-3.145-.98-4.79.227-7.852 2.287-6.368 3.684-12.926 5.148-19.523l.461-2.069C368.141 675.2 376.168 635.416 376 597l-.547 3.623c-9.61 63.434-9.61 63.434-17.453 94.377q-.513 2.064-1.023 4.129-.963 3.884-1.946 7.762a838 838 0 0 0-2.25 9.156c-3.93 16.215-3.93 16.215-6.96 23.816-.954 2.334-.954 2.334-1.634 5.7C343 748 343 748 339.966 749.129c-4.195 1.064-8.277 1.255-12.59 1.246l-2.367-.005c-6.91-.144-13.854-.996-20.008-4.37-1.286-3.211-.873-5.194.258-8.395l.89-2.614.977-2.803c3.873-11.557 6.517-23.242 8.875-35.188 1.825 3.318 1.904 4.385 1 8 .65 2.217.65 2.217 2 4 4.07 1.357 7.744 1.525 12 1 11.978-6.102 16.436-20.879 20.398-32.82 8.183-25.43 14.173-51.243 19.207-77.465l.404-2.098q.962-5.024 1.9-10.05c1.376-7.298 2.999-14.44 5.091-21.567h1c2.282 13.389 2.307 26.69 2.26 40.242-.01 3.723 0 7.445.013 11.168.007 13.55-.554 26.894-1.815 40.383-.591 6.409-.791 12.77-.77 19.207l-.05 3.227c-.003 6.307.615 11.063 3.362 16.773 4.062 3.96 7.473 5.166 13.063 5.375 6.31-.1 10.877-1.602 15.937-5.375 5.34-6.76 7.985-14.832 10.563-22.937l1.168-3.594c2.853-8.88 5.422-17.81 7.63-26.871q.751-3.047 1.528-6.086c2.546-10.002 4.824-20.046 6.986-30.137l.515-2.395c2.42-11.25 4.776-22.512 7.048-33.793l.747-3.695c.943-4.743 1.86-9.448 2.413-14.254C450 550 450 550 451 549"/><path fill="#f7f9f5" d="M466 272c2 2 2 2 2.188 4.5C468 279 468 279 467 281a113 113 0 0 1-5.875 3.063l-3.242 1.597C455 287 455 287 452 288v2l-2.937.813L446 292l-1 3a109 109 0 0 1-5.75 4.438C427.38 308.324 417.132 318.326 408 330l-1.514 1.91C396.24 344.979 388.55 359.254 381 374l-1.187 2.273c-2.282 4.426-4.086 8.89-5.688 13.602l-.766 2.227q-.792 2.31-1.577 4.62a434 434 0 0 1-2.29 6.47c-4.271 12.035-7.1 24.329-9.81 36.799a181 181 0 0 1-1.675 6.724c-1.219 4.846-1.815 9.732-2.41 14.687l-.37 2.99q-.588 4.772-1.164 9.546l-.81 6.593q-.789 6.417-1.567 12.835-.81 6.653-1.64 13.302c-1.486 12.001-2.741 24.018-3.924 36.052a2206 2206 0 0 1-3.7 34.565q-.453 3.986-.895 7.973-.629 5.663-1.274 11.323-.248 2.188-.489 4.378c-.923 8.386-2.192 16.578-4.055 24.818-1.028 4.671-1.764 9.377-2.522 14.098-1.564 9.434-3.677 18.648-6.169 27.88-1.42 5.363-2.387 10.46-2.709 16.005-.52 3.765-2.155 7.127-4.309 10.24l-2 1c-.21-6.868.545-13.084 1.875-19.812q.529-2.76 1.055-5.52l.506-2.658a312 312 0 0 0 3.896-27.397l.354-3.583q.474-4.845.934-9.688.291-3.075.587-6.15c2.185-22.873 3.899-45.766 5.418-68.692l1.23-18.492.15-2.242C339.81 443.578 339.81 443.578 351 406l.8-2.704c9.639-31.957 25.59-60.71 48.2-85.296l1.518-1.655C418.396 298.18 442.233 279.922 466 272"/><path fill="#22c55e" d="m204 457 2.875 2.563C222.266 472.693 239.463 480.38 260 479c12.604-1.596 23.02-5.947 32-15 2.313-1.312 2.313-1.312 4-2-2.292 7.334-4.975 13.154-10 19a425 425 0 0 0 4.125-2.187l2.32-1.231c3.13-1.938 5.768-4.178 8.555-6.582.718 13.472-.65 23.867-9 35 6.745-3.118 11.211-6.532 15-13l1-3c2.512-1.281 2.512-1.281 5.688-2.5A136 136 0 0 0 326 482q-.58 9.41-1.172 18.817-.2 3.184-.395 6.367c-.923 14.961-2.06 29.89-3.433 44.816-7.467-.915-7.467-.915-10.762-2.602l-1.932-.974-1.993-1.049-2.117-1.092A559 559 0 0 1 298 543l-3.25-1.734c-15.414-8.61-39.64-25.372-46.75-42.266l3.227-.41c9.612-1.373 21.556-3.373 28.773-10.59l-2.195.402-2.93.536-2.883.527L269 490c-.953.182-1.905.364-2.887.55-17.116 2.47-32.962-1.398-46.945-11.62-6.493-5.566-13.419-12.682-16.168-20.93z"/><path fill="#ffffff" d="M745 675c2.126 6.378 3.568 12.72 4.813 19.313 2.863 14.932 7.227 29.432 12.304 43.753C763 741 763 741 763 745c-12.037 5.671-23.708 8.234-36.937 8.313l-2.366.016c-2.244-.028-4.459-.17-6.697-.329l-2.177.051c-2.566-.182-3.767-.475-5.823-2.051-2.326-4.711-3.505-9.675-4.75-14.75a900 900 0 0 0-1.09-4.098 707 707 0 0 1-2.128-8.176c-.957-3.736-2.014-7.438-3.095-11.14-1.955-6.772-3.616-13.59-5.187-20.461l-.812-3.465-.766-3.324-.685-2.967C690 680 690 680 690 676q2.063.216 4.125.438c.766.08 1.531.162 2.32.246 2.555.316 2.555.316 5.168.836 12.06 1.71 25.244 1.56 36.961-1.864C741 675 741 675 745 675"/><path fill="#1a1828" d="M443.922 376.844c12.345 6.869 19.152 17.76 23.265 30.969 3.239 16.386.495 32.006-8.664 46.046C451.767 463.353 443.76 469.917 432 472c-7.922.85-15.046.142-22-4l-2-3 1.877.063c2.853.085 5.706.136 8.56.187l2.952.102c9.318.124 17.776-2.81 24.611-9.352 2.198-2.889 4.145-5.881 6-9l-1.812 1.438C445.1 452.07 438.99 451.655 433 451c-6.473-2.297-10.543-7.262-14-13l-1.258-2.035c-4.6-9.12-4.037-21.335-2.117-31.164 2.365-6.727 7.201-13.182 13.273-16.992 3.23-1.46 6.608-2.28 10.102-2.809-6.46-2.154-15.142-2.313-21.437.5-8.94 5.436-13.575 14.514-16.313 24.25-3.571 15.62.295 28.462 7.75 42.25q1.009 1.995 2 4c-7.762-3.763-12.238-10.442-15.176-18.312-4.823-15.729-4.119-29.833 3.613-44.563 9.276-15.552 26.94-23.514 44.485-16.281"/><path fill="#22c55e" d="m759 517 2.313 2.5c2.441 2.84 2.441 2.84 5.687 2.5a875 875 0 0 1 2 4.375l1.125 2.46C771 531 771 531 771 533l-3.375-1c-4.949-1.113-9.766-1.192-14.812-1.187l-2.34-.002c-4.26.04-8.279.353-12.473 1.189v2l3.938-.312c14.704.041 28.212 6.664 38.812 16.5 11.66 12.307 16.713 28.128 16.52 44.84-1.373 20.228-10.861 39.136-25.395 53.16C752.509 665.063 729.963 669.697 705 669c4.47-8.976 4.47-8.976 9-12 3.643-.7 7.12-1.037 10.81-1.283 19.021-1.41 36.53-12.65 48.878-26.78 8.788-11.277 17.574-28.08 16.683-42.746-2.035-12.015-9.047-23.296-18.683-30.691-13.032-8.682-26.305-11.11-41.688-9.5-3.533.87-6.658 2.319-9.883 4.004L718 551l-2-1c3.932-5.327 8.38-8.548 14-12-5.664.365-10.007 1.055-15 4 .53-4.642 1.73-7.847 4.188-11.812.57-.956 1.142-1.91 1.73-2.895 2.628-2.894 4.276-2.905 8.082-3.293l3-2c2.51-.654 4.956-1.211 7.5-1.687l2.15-.408c5.932-1.025 11.405-.95 17.35.095z"/><path fill="#22c55e" d="M325 482c0 3 0 3-1.379 5.895-2.814 6.292-3.116 13.381-3.994 20.15-3.05 21.84-3.05 21.84-9.627 26.955-6.567.644-10.582-.73-16.25-3.937l-2.234-1.227C281.794 524.373 273.218 517.517 265 510l1-3c2.555-1.14 2.555-1.14 5.875-2.25 11.016-4.022 19.934-10.462 28.125-18.75-.44 8.053-3.592 13.388-8 20 6.745-3.118 11.211-6.532 15-13l1-3c2.547-1.281 2.547-1.281 5.75-2.5 4.013-1.542 7.62-3.187 11.25-5.5"/><path fill="#181727" d="M605 389.125c1.544 2.895 1.592 4.653 1 7.875-4.302 3.298-8.998 5.553-13.875 7.875-5.338 2.59-10.179 5.246-14.742 9.094C576 415 576 415 574 415v2l3.445-.168c4.841.005 8.9 1.248 13.43 2.856l2.385.825c16.846 5.962 16.846 5.962 21.74 12.487.563 2.563.563 2.563 0 5-1.562 2.375-1.562 2.375-4 4-4.95-.336-8.617-1.558-13-3.812-12.19-5.757-23.233-7.698-36.588-7.685-6.814-.085-6.814-.085-10.037-2.339-1.59-2.504-1.922-4.193-1.297-7.113 6.527-14.519 26.245-25.459 40.36-31.613 4.796-1.743 9.87-2.953 14.562-.313"/><path fill="#f9faf8" d="M441 385v1l-1.977.297c-8.597 1.47-13.348 4.389-18.628 11.312-3.829 6.563-4.952 12.591-4.895 20.141l.015 2.659c.255 9.528 3.029 18.142 9.684 25.193 5.046 3.918 11.52 5.737 17.801 6.398-7.54 6.144-15.762 5.71-25 5-5.275-1.134-8.743-3.087-11.812-7.562-7.335-13.578-9.294-27.794-5.09-42.692 2.952-8.986 8.261-17.289 16.527-22.308 7.067-3.077 16.48-2.684 23.375.562"/><path fill="#ffffff" d="M713 602c1.324 5.843 1.262 11.595 1.313 17.563l.087 3.384c.106 13.95-4.688 26.24-14.275 36.428-3.713 3.541-7.425 5.61-12.125 7.625-1.858-6.095-3.163-12.26-4.437-18.5l-.66-3.212-1.298-6.352q-.797-3.855-1.632-7.702l-.442-2.076q-.569-2.666-1.148-5.33c-.364-2.69-.28-4.297.617-6.828l1.25 1.941c3.977 5.957 8.115 10.639 13.75 15.059l.664-3.148c2.496-11.222 5.61-20.382 14.82-27.891C711 602 711 602 713 602"/><path fill="#22c55e" d="M299 383c8.401 4.517 12.988 13.339 16.113 22.113 3.21 14.067 1.835 27.766-5.488 40.227-1.312 1.973-1.312 1.973-3.625 4.66h-2l-1.562-3.625c-2.224-4.463-5.167-7.759-9.438-10.375h-7c-1.242-4.368-2.088-8.445-2-13 1.642-2.687 3.552-4.49 5.824-6.66 8.101-8.712 8.33-22.077 9.176-33.34"/><path fill="#ffffff" d="M263 342c-1.705 3.696-3.348 7.144-7.066 9.07l-2.371.805c-18.09 6.147-33.062 23.447-41.641 40.004-7.59 15.423-9.026 29.746-9.484 46.683l-.131 4.502q-.159 5.468-.307 10.936c-9.396-11.84-8.316-31.803-7-46 .885-5.688 2.685-10.746 5-16l.829-1.895c10.379-23.072 29.572-37.87 52.648-47.195 5.885-2.123 5.885-2.123 9.523-.91"/><path fill="#fcfefa" d="M448.922 311.836C450.562 313 450.562 313 453 316c.899 5.993-.196 11.609-3 17-5.05 6.698-11.275 11.103-19.617 12.41-4.64.269-6.686.13-10.445-2.785-3.063-4.15-3.278-6.435-2.938-11.625 2.828-8.797 7.915-13.864 15.95-18.055 5.043-2.325 10.716-3.395 15.972-1.11"/><path fill="#51ce81" d="M416 180c4.455 2.11 7.226 4.368 9 9 .665 5.373.696 9.608-1.75 14.5-3.844 4.27-6.71 6.308-12.562 6.75-5.326-.361-8.38-1.835-12-5.75-3.423-5.07-3.46-10.568-2.688-16.5 4.298-8.43 11.496-8.911 20-8"/><path fill="#53ce80" d="M662 180c4.838 2.33 7.6 5.201 10 10 .702 5.438.075 9.424-2.605 14.234-3.364 4.26-7.814 5.548-13.02 6.266-5.267-.78-8.177-3.172-11.687-7.062-2.494-3.602-3.146-6.864-3.106-11.239.79-4.152 3.446-7.295 6.418-10.199 4.396-2.786 8.958-2.638 14-2"/><path fill="#1e1f2c" d="M444.621 353.55c9.192 5.6 15.206 12.7 18.117 23.083.486 2.108.884 4.237 1.262 6.367l-1.875-1.937q-1.56-1.534-3.125-3.063l-2.066-2.09c-11.197-10.79-24.01-15.932-39.434-16.535l-2.492-.117q-3.003-.138-6.008-.258c8.956-9.645 23.914-10.946 35.621-5.45"/><path fill="#191a28" d="M600 364c1.02.98 2.023 1.978 3 3l-3.734-.14c-9.822-.261-18.186-.07-27.266 4.14-.908.4-1.815.802-2.75 1.215C560.059 376.719 553.127 383.8 546 391c1.364-11.051 5.97-19.222 14.602-26.305 11.98-8.468 26.87-7.962 39.398-.695"/><path fill="#3a9d65" d="M313 403c5.119 7.678 4.293 20.31 2.585 29.145-1.853 6.636-5.106 12.65-9.585 17.855h-2l-1.562-3.625c-2.224-4.463-5.167-7.759-9.438-10.375h-7l-2-13 4-3 1.125 2.563c2.166 3.971 4.44 7.455 7.875 10.437 3.213 1.04 3.213 1.04 6 1 7.418-8.822 8.328-19.906 10-31"/><path fill="#35a165" d="M703 561c.182.808.364 1.616.55 2.45l.763 3.237.738 3.2c.942 3.089 2.173 5.431 3.949 8.113l2-2c1.001 3.31 1.104 6.3 1.063 9.75l-.028 2.984L712 591l-7 3-5-17c-7.496 3.748-10.87 10.471-14 18-.85 3.395-.85 3.395-1 6h-1c-.614-13.225 1.996-23.975 10.875-34.148C700.607 561 700.607 561 703 561"/><path fill="#81f1a0" d="M472 247c2.99 2.753 4.85 5.242 6.578 8.914l1.328 2.805 1.344 2.906 1.39 2.93C486 271.713 486 271.713 486 274a875 875 0 0 1-4.375 2l-2.46 1.125C477 278 477 278 475 278l-.48-2.133c-1.94-8.21-4.567-15.976-7.52-23.867z"/><path fill="#43bb72" d="M595 247c2.271.909 3.744 1.687 5.305 3.594 1.087 3.764-.59 6.701-2.055 10.156-2.207 5.375-3.953 10.577-5.25 16.25l-9-2c-.894-2.459-1.24-4.284-.397-6.8a119 119 0 0 1 3.085-6.075l1.068-2.066c2.302-4.419 4.75-8.747 7.244-13.059"/><path fill="#f5f4f5" d="M434.063 394.438c3.554.68 4.714 1.763 6.937 4.562 1.75 3.499.84 7.28 0 11-1.625 2.563-1.625 2.563-4 4-3.5.625-3.5.625-7 0-3.017-3.094-4.256-5.813-4.562-10.062C426 400 426 400 428.125 397c2.875-2 2.875-2 5.938-2.562"/><path fill="#bdc1c6" d="m428.875 382.813 3.68-.043c3.288.22 5.499.813 8.445 2.23v1l-1.977.297c-5.614.96-9.41 2.188-14.023 5.703-2.574 1.458-4.894 2.283-7.75 3.188-4.297 1.558-7.192 4.082-10.488 7.19C405 404 405 404 402 406c1.77-9.245 7.728-15.524 15.203-20.906 3.837-2.336 7.283-2.258 11.672-2.281"/><path fill="#c5f8d0" d="M709 472c5.119.53 9.085 2.3 13.5 4.813.696.395 1.393.791 2.11 1.2 14.973 8.829 35.758 26.166 41.132 43.362L766 523c-4.212-1.53-6.272-4.634-8.812-8.125q-1.335-1.779-2.672-3.555l-1.307-1.737c-2.563-3.355-5.333-6.496-8.209-9.583l-1.973-2.133C733.014 487.436 721.664 479.797 709 473z"/><path fill="#f8fef9" d="M410 348c2.257 1.557 2.867 2.576 3.688 5.188L414 355l-4 3 3 2c-1.75 3.875-1.75 3.875-4 5-7.117.574-7.117.574-10.5-1.625-1.995-3.158-2.163-4.694-1.5-8.375 3.475-5.526 6.46-7.534 13-7"/><path fill="#132529" d="M581 585c2.194 3.292 2.326 4.637 2.563 8.496l.223 3.353.214 3.588q.243 3.688.492 7.375l.25 3.692c.356 4.823.859 9.626 1.383 14.433C588.16 645.26 588.16 645.26 585 650h-2c-2.487-21.648-2.204-43.246-2-65"/><path fill="#223535" d="M453 577h1c.832 5.083 1.16 10.026 1.168 15.18l.01 2.336q.007 2.444.007 4.886c.002 2.432.02 4.862.04 7.293.03 7.991-.192 15.92-.987 23.875l-.184 2.183c-.232 2.005-.232 2.005-1.054 5.247-2.077 1.464-2.077 1.464-4 2 .407-11.541 1.009-23 2.265-34.482 1.004-9.483 1.372-18.993 1.735-28.518"/><path fill="#b7f8bc" d="M223.125 390.125C226 391 226 391 228 393c.324 4.021.513 6.794-1.062 10.5-1.938 1.5-1.938 1.5-5.438 2-3.5-.5-3.5-.5-5.5-2.062-1.451-3.537-.98-5.781 0-9.438 2.253-3.338 3.054-4.038 7.125-3.875"/><path fill="#a4d4bd" d="M578 594h1l1 22h1c.833 7.057 1.192 14.02 1.188 21.125l.001 3.012c-.06 8.415-.84 16.558-2.189 24.863h-1c-1.042-15.403-1.119-30.754-1.062-46.187q.008-3.63.013-7.256.017-8.78.049-17.557"/><path fill="#359e60" d="M643 188h1l.297 1.793c1.111 5.873 2.48 9.873 7.515 13.52 3.957 1.243 7.488 1.422 11.348-.247a105 105 0 0 0 4.14-2.289L669 200l2 1c-2.885 5.193-5.103 7.201-11 9-4.287.527-6.355.341-10.187-1.687C646.1 205.26 643.53 202.592 642 198c-.475-7.05-.475-7.05 1-10"/><path fill="#55b77c" d="M453 224c4.284 1.58 6.736 4.84 9.563 8.25l1.458 1.7c2.922 3.48 5.1 6.874 6.979 11.05-1.25 1.5-1.25 1.5-3 3h-4l-1.102-2.09c-2.99-5.59-6.1-10.851-9.894-15.937C452 228 452 228 452.34 225.746z"/><path fill="#0b2625" d="m247 497 8 1v1l-6 1c17.97 21.731 38.653 39.188 65 50v1h-5v-2l-3.687-.875c-3.231-.803-6.256-1.788-9.313-3.125v-2l-6-2v-2l-2.25-.25c-3.344-.912-4.338-2.303-6.75-4.75a202 202 0 0 0-5.062-3.562c-6.36-4.547-11.54-9.813-16.938-15.438l-2.652-2.629c-1.804-1.822-3.448-3.617-5.036-5.621-2.016-2.767-2.016-2.767-4.312-3.75z"/><path fill="#60bf80" d="m613 224 3 2c-2.131 4.337-4.52 8.505-6.937 12.688l-1.342 2.376-1.31 2.26-1.184 2.065C604 247 604 247 601 248c-2.187-1.437-2.187-1.437-4-3 3.791-8.025 10.072-14.5 16-21"/><path fill="#3e9368" d="M424 189h1c.625 9.75.625 9.75-1.75 14.5-3.844 4.27-6.71 6.308-12.562 6.75-5.429-.368-8.462-1.863-12.063-5.937L397 202l2-1 2.625 1.438c5.218 2.415 9.25 2.338 14.625.375 3.081-2.031 4.818-3.664 6.75-6.813.802-3.69.802-3.69 1-7"/><path fill="#48926e" d="M767 652c-20.143 13.644-38.033 17.843-62 17 2.04-4.266 4.586-6.734 8-10l2 1-5 6c14.884.42 26.627-.802 40.406-6.914 2.208-.924 4.26-1.59 6.594-2.086v-2c6.625-4.125 6.625-4.125 10-3"/><path fill="#092c21" d="M724 579c7.264 10.897 3.228 31.377 1.625 43.625l-.382 2.923c-.63 4.405-1.28 8.407-3.243 12.452-1.31-2.62-.951-4.243-.695-7.156l.27-3.098.3-3.246.277-3.246c.716-7.99.716-7.99 1.848-10.254.086-2.408.116-4.787.098-7.195l-.005-2.144a2159 2159 0 0 0-.03-6.786q-.008-2.299-.014-4.598-.017-5.639-.049-11.277"/><path fill="#4aa675" d="M468 251c3.402 1.042 4.07 2.126 5.852 5.3a230 230 0 0 1 1.773 4.012l.906 2.014c1.261 2.82 2.456 5.64 3.555 8.53.824 2.303.824 2.303 2.914 4.144-5.75 3-5.75 3-8 3l-.48-2.133c-1.94-8.21-4.567-15.976-7.52-23.867z"/><path fill="#a9ebb5" d="m595 247 3 1c-1.172 3.941-2.704 7.595-4.437 11.313-2.231 4.817-3.985 9.62-5.563 14.687h-5c.553-5.355 2.428-9.366 4.875-14.062l1.066-2.104c1.89-3.698 3.87-7.302 6.059-10.834"/><path fill="#458f6d" d="M795 583c2.725 2.725 2.331 4.246 2.375 8.063-.348 18.906-7.63 37.816-20.375 51.937h-2c1.464-3.069 3.14-5.904 5-8.75l1.563-2.422L783 630h2l.348-1.648c.776-2.8 1.91-5.323 3.09-7.977 2.05-4.815 3.38-9.352 4.203-14.512C793 604 793 604 794 603c.157-1.486.25-2.98.316-4.473l.127-2.724.12-2.865.13-2.877q.16-3.53.307-7.061"/><path fill="#d9f1df" d="M709 472c5.308.534 9.082 2.332 13.625 4.938l2.102 1.189C731.45 482.052 737.24 486.776 743 492l-2 2c-3.938-2.05-7.167-4.055-10.375-7.125-4.787-4.387-10.365-7.404-15.986-10.586A340 340 0 0 1 709 473z"/><path fill="#75c598" d="M725.313 513.75C727 515 727 515 728 516c2 .04 4 .043 6 0l-.937 2.313A111 111 0 0 0 731 524c-2.602 1.648-3.862 2-7 2 1.393-3.367 2.979-4.986 6-7-6.316.403-10.65 2.712-16 6l-1-2h2l.438-1.812c1.288-5.011 1.288-5.011 4.375-7C723 513 723 513 725.313 513.75"/><path fill="#0b2424" d="M793 615c.86 2.43 1.096 3.687.328 6.184l-1.078 2.254-1.137 2.378c-2.016 3.955-3.989 7.06-7.113 10.184l-1.285 2.273c-1.919 3.05-4.085 5.327-6.653 7.852l-2.59 2.57C767.783 654 767.783 654 765 654l-.625 1.875c-1.923 2.972-4.04 3.255-7.375 4.125 1.218-3.655 2.263-4.074 5.438-6.125C777.41 643.615 785.444 631.178 793 615"/><path fill="#bbfcbb" d="m412 184 1 7c-1.687 1.563-1.687 1.563-4 3-3.37-.24-4.588-.588-7-3-.359-2.798-.338-4.403 1.063-6.875 3.053-1.773 5.601-.817 8.937-.125"/><path fill="#1f3737" d="M376 592h1c.244 9.506-.52 18.813-1.5 28.25l-.434 4.316Q374.542 629.785 374 635h-1l-1-5h-1c.592-8.665 1.69-17.176 3.063-25.75l.564-3.594q.681-4.329 1.373-8.656"/><path fill="#051e19" d="M298 381h3v2l1.75.25c3.008 1.003 4.297 2.258 6.25 4.75.75 3.25.75 3.25 1 6l-10-10-.262 3.262c-.895 9.716-2.66 17.79-6.738 26.738h-2v-3h2v-5h2c.764-7.055 1.292-14.108 1.719-21.191C297 382 297 382 298 381"/><path fill="#092420" d="M419 181c4.292 1.533 6.02 3.968 8 8 .835 6.178.718 11.795-3 17-3.953 3.964-7.13 5.877-12.812 6.25-4.014-.044-6.765-1.08-10.188-3.25l-1-2 3.063 1c4.995 1.4 9.166 1.625 14.125-.125 3.545-2.363 5.006-3.986 6.812-7.875.75-5.143 1.05-10.11-1.937-14.562L420 183z"/><path fill="#befcc3" d="M657 183c3.5.188 3.5.188 7 1 2 3 2 3 1.813 5.563C665 192 665 192 662 194c-3.322-.324-4.608-.608-7-3-.25-3-.25-3 0-6z"/><path fill="#b7e3cd" d="M455 600c2.19 3.285 2.246 4.218 2.227 8.022v3.094l-.032 3.333-.008 3.418c-.011 3.607-.037 7.214-.062 10.82q-.016 3.666-.027 7.33-.034 8.992-.098 17.983h-1l-1-15h-1c-.143-13.035.281-25.985 1-39"/><path fill="#b4f8b1" d="M756 628c1 1 1 1 1.25 4.438L757 636c-3.224 2.15-4.267 2.383-8 2-2-2-2-2-2.312-4.937.312-3.063.312-3.063 1.437-5 2.827-1.602 4.824-.859 7.875-.063"/><path fill="#92c9af" d="M582 641h1q.507 5.03 1 10.063c.095.942.19 1.885.29 2.857 1.01 10.37 1.01 10.37.71 15.08-2 1.938-2 1.938-4 3-1.77-1.77-1.166-4.117-1.19-6.475l.003-2.275-.002-2.304c.062-6.794.889-13.271 2.189-19.946"/><path fill="#6fd192" d="M268 415c4.563 4.102 7.196 9.822 10.25 15.063l2.008 3.376 1.883 3.221 1.735 2.957c.37.787.742 1.573 1.124 2.383l-1 2c-4.4-3.822-5.808-6.474-7-12h-2l1 6c-2.632-2.632-3.316-5.185-4.562-8.687l-1.317-3.637C269.012 422.04 268.43 418.76 268 415"/><path fill="#8fdea4" d="M325 482c0 3.58-.497 3.93-2.937 6.375-4.37 4.192-9.806 8.625-16.063 8.625.24-3.065.357-4.476 2-7 2.91-1.63 5.814-2.75 8.957-3.86 2.943-1.102 5.406-2.444 8.043-4.14"/><path fill="#0b2423" d="M714 567c5.849 5.849 7.109 21.011 7.125 29.188L721 599c-2.177-3.666-2.818-7.55-3.562-11.687-.473-4.524-.473-4.524-2.438-8.313l-2 12h-1c-.197-8.297-.26-15.95 2-24"/><path fill="#25453f" d="M666 537h1q1.11 7.978 2.191 15.96.37 2.715.748 5.427c.363 2.603.715 5.208 1.065 7.812l.347 2.44c.533 4.045.8 7.368-.351 11.361h-2q-.652-6.292-1.282-12.585-.215-2.133-.436-4.265c-.906-8.734-1.508-17.357-1.282-26.15"/><path fill="#0e342a" d="M301 473h1c1.957 18.532 1.957 18.532-3 26h3c-1.451 3.826-3.358 5.223-7 7h-3l.84-1.652c1.292-2.615 2.513-5.256 3.723-7.91l1.316-2.88c1.95-4.45 2.41-8.453 2.683-13.245l.131-2.127q.158-2.593.307-5.186"/><path fill="#092c22" d="M290 434c5.663 2.831 9.156 5.988 13 11l-2 2-1-4h-2c-1.625-1.5-1.625-1.5-3-3l1 5h2c1.323 4.96 1.089 9.911 1 15l-2 1-.297-3c-.811-7.407-1.89-13.48-5.703-20a63 63 0 0 1-1-4"/><path fill="#091d21" d="M787 557c7.921 7.233 11.42 20.328 12.316 30.645.156 9.222.156 9.222-2.316 13.355l-.113-3.043c-.576-12.901-2.353-24.012-8.68-35.496C787 560 787 560 787 557"/><path fill="#f3f3f5" d="M445.938 428.813C449 429 449 429 451 431c.25 2.5.25 2.5 0 5-2 2-2 2-5.062 2.188C443 438 443 438 442 437c-.125-3.5-.125-3.5 0-7 1-1 1-1 3.938-1.187"/><path fill="#081f19" d="M264 413c2.411.957 3.728 1.516 5.02 3.816l.718 2.176.795 2.387.78 2.496.837 2.473c2.156 6.658 2.156 6.658.85 10.652a764 764 0 0 1-3.937-7.5l-1.131-2.11c-2.507-4.878-3.543-8.914-3.932-14.39"/><path fill="#67c58c" d="M687 592c1 2 1 2 .5 4.563-.626 4.306-.118 8.156.5 12.437h2l.75-2.25c1.341-2.951 2.86-4.598 5.25-6.75 0 3.787-1.269 5.834-3 9.188l-1.687 3.292L690 615c-3.686-3.474-4.833-6.622-5.191-11.73-.154-7.752-.154-7.752 2.191-11.27"/><path fill="#6bb88b" d="M715 567h2c2.428 5.827 2.617 11.776 3 18h2l1-3v19h-1q-1.257-5.816-2.509-11.633-.633-2.944-1.27-5.887l-.81-3.77-.747-3.459A217 217 0 0 1 715 567"/><path fill="#0a2f24" d="M284 426h1c.672 3.103 1.336 6.208 2 9.313l.578 2.67.547 2.568.508 2.364C289 445 289 445 289 448h-2l-1.562-3.25c-2.862-5.744-6.165-11.234-9.438-16.75l2-1 1.023 1.934 1.352 2.503 1.336 2.497c1.123 2.2 1.123 2.2 3.289 3.066l-1-3c-.128-2.674-.044-5.321 0-8"/><path fill="#408c64" d="M642 190h1l.586 2.555.789 3.32.773 3.305c.641 2.924.641 2.924 2.852 4.82 5.358 2.462 10.13 3.137 16 3v-2h3v2c-4.886 2.393-8.441 3.707-14 3-5.278-2.794-9.089-6.266-11-12-.128-2.674-.044-5.321 0-8"/><path fill="#4daf75" d="m598 249 3 2-1.187 3.438C597.32 261.889 595.19 269.456 593 277l-4-1 3-1 .313-2.937c.633-4.549 2.135-8.757 3.687-13.063l-1 1c-.75-1.562-.75-1.562-1-4 1.13-2.503 2.521-4.67 4-7"/><path fill="#0e2b26" d="M712 591v2c-3 2-3 2-6 2l-.75 1.75c-1.433 2.58-3.034 4.311-5.25 6.25h-2l-.812 1.688c-1.297 2.524-2.613 4.95-4.188 7.312h-2c3.075-8.714 9.107-15.626 17.156-20.234C710 591 710 591 712 591"/><path fill="#35a167" d="M424 189h1c.705 6.462-.588 9.761-4.2 15.117-2.91 3.044-5.81 3.784-9.925 4.196-3.271-.356-3.775-.958-5.875-3.313l2.195-.262c6.408-.931 10.591-1.66 14.805-6.738 1.021-2.97 1.607-5.889 2-9"/><path fill="#09121f" d="M372 629h1c.25 8.58-.301 16.582-2 25h-1l.063-2.187c.027-2.749.027-2.749-.563-5.125-1.12-6.019-.844-11.035 1.5-16.688z"/><path fill="#4a9470" d="M321 520h2c.118 7.084-.342 14.011-1 21.063-.095 1.056-.19 2.112-.29 3.2q-.349 3.87-.71 7.737a109 109 0 0 1-7-1l-1-2 6 1-.062-3.625a37 37 0 0 1 .53-7.125c.634-3.875.878-7.708 1.094-11.625l.131-2.23q.157-2.697.307-5.395"/><path fill="#0d2221" d="M281 488c-5.154 4.799-12.23 8.842-19.348 9.14L259 497v-1l8-1v-5c1.58-.533 3.164-1.051 4.75-1.562l2.672-.88c2.656-.575 4.048-.45 6.578.442"/><path fill="#0a2c23" d="M258 349h1c.125 7.625.125 7.625-1 11a128 128 0 0 0-.316 5.543l-.127 3.252-.12 3.392-.13 3.428q-.16 4.192-.307 8.385c-2.465-4.376-2.343-8.077-2.312-13l.003-2.556c.104-6.785 1.145-12.992 3.309-19.444"/><path fill="#b7efcc" d="M453 224c4.284 1.58 6.736 4.84 9.563 8.25l1.458 1.7c2.922 3.48 5.1 6.874 6.979 11.05l-3 1c-2.469-3.336-4.703-6.38-6.5-10.125-1.711-3.28-3.863-5.306-6.5-7.875-1.312-2.312-1.312-2.312-2-4"/><path fill="#cdefd7" d="m613 224 2 1v2l-3 2.313c-5.428 4.429-8.574 10.689-12 16.687l-3-1c3.791-8.025 10.072-14.5 16-21"/><path fill="#adf8bc" d="M765.438 618.813C768 619 768 619 770 621c-.556 4.556-.556 4.556-2 6-2.437.188-2.437.188-5 0l-2-2c.72-5.902.72-5.902 4.438-6.187"/><path fill="#499771" d="m703 561 4 16c-2.679-2.319-3.662-4.318-4.687-7.687l-.762-2.45L701 565c-4.39 2.97-6.814 6.461-9.57 10.879-1.327 1.968-2.694 3.513-4.43 5.121 1.404-5.614 8.878-20 16-20"/><path fill="#37b76b" d="M471 255h2a358 358 0 0 1 3.063 6.063l1.722 3.41c1.38 4.008 1.127 6.434.215 10.527-2.634-3.14-3.92-6.115-5.187-10l-1.043-3.125C471 259 471 259 471 255"/><path fill="#102223" d="M690 502h1c.532 2.08 1.05 4.165 1.563 6.25l.878 3.516c.51 2.955.589 4.478-.441 7.234l-2-1-1 4c-1.648-3.297-1.143-6.943-1.125-10.562l-.012-2.405c.01-5.906.01-5.906 1.137-7.033"/><path fill="#9be1ae" d="M472 247c2.99 2.753 4.85 5.242 6.578 8.914l1.328 2.805 1.344 2.906 1.39 2.93C486 271.713 486 271.713 486 274h-5l2-1c-2.051-5.852-4.166-11.474-7-17v-2h-2v-3l-3-1z"/><path fill="#1b2e27" d="M198 393c1.214 3.491.744 5.519-.395 8.988-1.782 6.1-2.15 11.874-2.292 18.2l-.104 3.173q-.121 3.819-.209 7.639h-1c-1.144-12.56-.79-23.686 2-36h2z"/><path fill="#b1b1b9" d="m414 387 2 2-7 8 2 1-8 8-1-2c2.762-6.844 6.94-11.694 12-17"/><path fill="#83cfa0" d="M432 205c4.555 2.1 7.981 5.178 11.75 8.438l2.113 1.775 1.996 1.72 1.828 1.565C451 220 451 220 451 223l-2 1-1.18-1.398c-4.392-5.121-9.052-9.886-13.879-14.598C432 206 432 206 432 205"/><path fill="#07231e" d="m657.75 177.875 2.422.055L662 178v1l-1.977.297c-6.638 1.136-11.43 2.592-15.898 7.953-2.104 5.143-1.455 10.431-.125 15.75-2.567-1.897-3.023-3.092-3.812-6.25-.214-4.266.1-6.827 1.812-10.75 4.412-4.833 9.044-8.322 15.75-8.125"/><path fill="#0a2925" d="M468 247c1.125 3.75 1.125 3.75 0 6 1.169 3.318 2.462 6.55 3.818 9.795 1.854 4.65 2.504 8.198 2.182 13.205-1.967-3.614-3.263-7.423-4.562-11.312l-.67-1.936c-1.09-3.25-1.837-6.266-2.295-9.67L466 250l-2-1z"/><path fill="#0d302a" d="m711 555 2 1-.96 2.414c-1.266 4.367-1.492 8.439-1.665 12.961l-.117 2.52c-.094 2.034-.177 4.07-.258 6.105-4.464-5.384-4.464-5.384-5-9l2-1c.88-2.704.88-2.704 1.563-5.875.72-3.102 1.43-6.103 2.437-9.125"/><path fill="#66c78c" d="M416 180c2.723 1.025 3.867 1.927 6 4v3l-1.125-1.375C416.2 181.574 410.84 181.799 405 182l-.75 1.938C403 186 403 186 400.875 186.75L399 187c.358-2.598.761-3.771 2.68-5.61 4.376-2.622 9.392-1.995 14.32-1.39"/><path fill="#4b9471" d="m722 527 2 1-1.937 2.813c-2.15 3.03-2.15 3.03-3.063 6.187l2.625-1c3.332-.987 5.927-1.164 9.375-1-2.98 1.545-6.001 2.836-9.125 4.063-3.483 1.366-3.483 1.366-6.875 2.937.316-6.165 3.492-10.173 7-15"/><path fill="#4b9b73" d="M325 484c1.367 2.734.921 4.623.66 7.664l-.283 3.399-.315 3.562-.302 3.586q-.373 4.395-.76 8.789h-1v-16h-2q.425-2.19.875-4.375l.492-2.46C323 486 323 486 325 484"/><path fill="#2b3637" d="M494 275h2v2l1.828-.14 2.422-.11 2.39-.14C505 277 505 277 509 281l-22-1c2.36-2.36 3.779-2.491 7-3z"/><path fill="#092424" d="M728.188 536.938 732 537c-2.764 2.262-5.564 4.407-8.5 6.438-3.193 2.25-5.823 4.723-8.5 7.562v-3h2l.813-1.937C719 544 719 544 722 543l-1-5c2.75-.917 4.36-1.109 7.188-1.062"/><path fill="#0d3023" d="M298 381h3v2l1.75.25c3.008 1.003 4.297 2.258 6.25 4.75.75 3.25.75 3.25 1 6l-10-10-1 12h-1z"/><path fill="#0f2821" d="M636 207c-2.774 6.808-9.565 11.32-15 16 0-4.917 3.7-7.6 7-11 5.299-5 5.299-5 8-5"/><path fill="#a1f9ad" d="M756 628c1 1 1 1 1.25 4.438L757 636c-3.224 2.15-4.267 2.383-8 2-2-2-2-2-2.312-4.937.312-3.063.312-3.063 1.437-5 2.827-1.602 4.824-.859 7.875-.063m-6 1c-1.198 2.329-1.198 2.329-2 5l2 3h3v-2h2l1-6z"/><path fill="#87c99d" d="m633 206 2 1-2.484 2.23-3.266 2.958-1.633 1.462c-3.204 2.912-6.001 5.877-8.617 9.35l-3-1c4.95-6.288 10.718-11.07 17-16"/><path fill="#0a2722" d="M732 518c-2.075 2.152-4.104 4.078-6.5 5.875-2.823 2.4-4.472 5.048-6.5 8.125h-2v-2h2l.875-2.25C721 525 721 525 722.125 522.813c1.02-1.778 1.02-1.778.875-3.813 2.957-1.478 5.742-1.06 9-1"/><path fill="#c4e7d1" d="M709 472c4.986.538 8.518 2.117 12.875 4.563l3.492 1.94L728 480c-1.516 1.27-1.516 1.27-4 2-2.805-1.07-5.237-2.685-7.75-4.312l-2.113-1.303c-1.739-1.087-3.442-2.232-5.137-3.385z"/><path fill="#0b2825" d="m670 183 2 4 1.125 1.75c1.342 3.452 1.542 6.649.875 10.25-1.403 2.875-3.091 5.437-5 8l-2-1 .875-1.469c3.523-6.362 4.168-10.88 2.125-18.031l-1-2.5z"/><path fill="#bcf1c8" d="M760 511c1.508 2.117 1.508 2.117 3.125 4.875l1.633 2.742C766 521 766 521 766 523c-3.686-1.459-5.161-3.302-7.25-6.625l-1.578-2.477L756 512c2-1 2-1 4-1"/><path fill="#4a9070" d="M248 499h10c-3 2-3 2-5 2 2.307 4.285 4.33 7.723 8 11h-3a84 84 0 0 1-5.187-5.937l-1.405-1.71C248 500.164 248 500.164 248 499"/><path fill="#3b4345" d="m408 465 19 1v1l-8 1-1 3c-4.853-1.323-6.233-2.233-10-6"/><path fill="#19282d" d="M392 723h18v2l-19 1z"/><path fill="#5ec186" d="M728 516h6l-.937 2.313A111 111 0 0 0 731 524c-2.602 1.648-3.862 2-7 2 1.393-3.367 2.979-4.986 6-7l-2-1z"/><path fill="#092822" d="m717 646 2 1c-1.331 8.808-7.217 14.71-14 20 1.516-3.435 3.564-5.97 6-8.812 3.315-4.054 5.106-7.049 6-12.188"/><path fill="#0c201f" d="m597 246 8 1c-1.142 4.48-2.43 8.145-5 12-.761-2.368-1.108-3.643-.375-6.062L600 251c-1.396-1.646-1.396-1.646-3-3z"/><path fill="#1a2e31" d="M671 579c2 2 2 2 2.25 5.25-.241 3.618-.938 6.389-2.25 9.75h-1l-1-14z"/><path fill="#88cc9e" d="M268 415c2.727 2.407 4.12 4.925 5.688 8.188l1.324 2.73L276 428l-4 1c-2.227-4.744-3.461-8.723-4-14"/><path fill="#1e252d" d="M565 363v2c-1.574 1.516-1.574 1.516-3.687 3.25-3.553 3.01-6.453 6.085-9.313 9.75l-2-1c9.7-14 9.7-14 15-14"/><path fill="#43ab66" d="M462 239c3.291 1.135 3.996 1.993 5.75 5.125L469 247l-5 1a136 136 0 0 1-3-7z"/><path fill="#6ac78c" d="M654 180c6.095-.42 9.129-.078 14 4 1.938 2 1.938 2 3 4-.312 2.25-.312 2.25-1 4l-2-5h-3c-1.687-1.375-1.687-1.375-3-3v-2l-8-1z"/><path fill="#292831" d="M703 760c5.724.747 11.349 1.829 17 3v2c-11.522-.779-11.522-.779-17-3z"/><path fill="#64c288" d="M299 486h1c-.361 6.625-2.105 11.574-6 17l-3 2v-3h2v-3h2l.621-2.59.817-3.348.808-3.34C298 487 298 487 299 486"/><path fill="#37865e" d="M688 580c0 2.56-.23 4.723-.656 7.23l-.41 2.432-.434 2.525-.434 2.561q-.53 3.126-1.066 6.252h-1c-.21-6.994-.266-13.328 2-20z"/><path fill="#0d2a26" d="M747 531v1l7 2v1l-16-1v-2c2.957-1.478 5.742-1.06 9-1"/><path fill="#48906d" d="m281 531 6 2v2l1.938.688c4.195 1.798 8.101 4.051 12.062 6.312v2c-4.505-1.582-8.272-3.917-12.25-6.5l-1.93-1.223c-4.695-3.026-4.695-3.026-5.82-5.277"/><path fill="#aefabd" d="M657 183c3.625.375 3.625.375 7 1l-1.812.313c-2.47.776-3.51 1.758-5.188 3.687l1 3 6 1-2 2c-3.297-.33-4.623-.623-7-3-.25-3-.25-3 0-6z"/><path fill="#bfc4cb" d="M452 446c0 3.396-.522 4.066-2.5 6.688l-1.406 1.886L447 456l-1-3-9-1v-1l2.266-.332 2.984-.48 2.953-.458c2.92-.762 4.54-1.768 6.797-3.73"/><path fill="#091e1c" d="M257 385h2c.532 2.247 1.05 4.498 1.563 6.75l.878 3.797c.493 3.048.636 4.63-.441 7.453q-1.011-3.09-2-6.187l-1.125-3.481c-.781-2.975-1.059-5.285-.875-8.332"/><path fill="#1b2930" d="M595 698h2c1.385 5.455 2.24 10.367 2 16-2-1-2-1-2.633-2.855-.941-4.46-1.602-8.557-1.367-13.145"/><path fill="#354443" d="m569 275-1 3 9 1v1l-17 1v-2c6.75-4 6.75-4 9-4"/><path fill="#0e3c20" d="M269 422c2.161 2.161 2.716 3.521 3.688 6.375l.824 2.336c.53 2.49.3 3.905-.512 6.289-5.06-7.877-5.06-7.877-4.812-12.562z"/><path fill="#b2fabf" d="m226 412 5 1-1 5-5-1z"/><path fill="#8db7a7" d="M455 626h1q.08 3.688.125 7.375c.017.699.034 1.397.05 2.117.018 1.837-.072 3.674-.175 5.508l-2 2c-1.356-2.711-1.17-4.913-1.187-7.937l-.043-3.215C453 629 453 629 455 626"/><path fill="#86ada0" d="M582 641h1l1 20c-4.026-6.04-3.129-13.1-2-20"/><path fill="#a5cebf" d="M690 527c2.104 2.006 3.805 4.035 5.438 6.438 1.963 2.808 4.038 5.225 6.562 7.562-3.95-.585-6.227-2.156-9-5-1.274-2.933-2.188-5.91-3-9"/><path fill="#55a07b" d="M301 471v17h-1v-13l-6 4c1.157-2.7 3.614-8 7-8"/><path fill="#0c1f22" d="M712 591v2c-3 2-3 2-6 2l-.875 1.938C704 599 704 599 702 600v-4c1.68-1.484 1.68-1.484 3.875-2.75l2.18-1.297C710 591 710 591 712 591"/><path fill="#64ca8a" d="M294 411c.621 1.848.621 1.848 1 4a1049 1049 0 0 1-4 5c-.336 2.71-.336 2.71 0 5h-2c-.875-2.5-.875-2.5-1-6 1.704-2.926 3.773-5.456 6-8"/><path fill="#cde0d8" d="M602 270c5.75 1.75 5.75 1.75 8 4l-6-1-3 7h-2q.463-2.22.938-4.437l.527-2.497C601 271 601 271 602 270"/><path fill="#2e2936" d="m612 212 1 2a2696 2696 0 0 1-3.312 3.813l-1.864 2.144A101 101 0 0 1 603 225l-2-1z"/><path fill="#5dbd83" d="m652 180 2 1-1.715 1.285c-5.118 3.883-5.118 3.883-7.285 9.653V195h-1c-.488-7.198-.488-7.198 1.75-10.875 2.066-1.95 3.564-3.23 6.25-4.125"/><path fill="#25242e" d="m538.75 797.438 2.984.308L544 798l-1 2q-2.937.079-5.875.125l-3.305.07C531 800 531 800 529 798c3.411-1.097 6.207-.942 9.75-.562"/><path fill="#bbecd0" d="M651 700c-1.113 1.488-1.113 1.488-3 3-2.918.293-2.918.293-6.187.188l-3.293-.083L636 703c4.74-3.16 9.412-3.133 15-3"/><path fill="#07151d" d="M582 617h2c.224 1.414.428 2.832.625 4.25l.352 2.39c.026 2.682-.611 4.087-1.977 6.36h-1z"/><path fill="#a6deaf" d="M325 482c0 3 0 3-1.625 5.188-2.98 2.274-4.714 2.145-8.375 1.812 2.782-3.273 6.28-4.964 10-7"/><path fill="#60c589" d="M294 445c2 1 2 1 2.621 2.766.403 2.376.477 4.576.442 6.984l-.028 2.422L297 459l-2 1v-12h-2z"/><path fill="#bfeec2" d="m595 247 3 1-2 5h-3l-2 5-1-2c.996-2.164.996-2.164 2.438-4.625l1.433-2.477z"/><path fill="#aee6b9" d="M463 237c1.75.063 1.75.063 4 1 1.595 2.242 2.745 4.536 4 7l-3 1a466 466 0 0 1-2.5-3.375l-1.406-1.898C463 239 463 239 463 237"/><path fill="#092f28" d="M292.625 474.875 295 475v2c-5.294 4-5.294 4-9 4 2.773-5.942 2.773-5.942 6.625-6.125"/><path fill="#459c70" d="m287 420 2 4-2 1v8c-2.615-2.615-2.657-4.514-3.047-8.09C284 423 284 423 285.438 421z"/><path fill="#0a2723" d="M596 265h1c-.514 4.97-1.234 9.29-3 14l-2-1q.713-2.97 1.438-5.937l.808-3.34C595 266 595 266 596 265"/><path fill="#92f5aa" d="m590 266-1 7h-4c.375-2.937.375-2.937 1-6 2-1 2-1 4-1"/><path fill="#09241a" d="m627 209 2 1q-2.43 2.258-4.875 4.5l-2.742 2.531C619 219 619 219 617 219c0-2 0-2 1.875-4.125C621 213 621 213 623 213v-2c1.875-1.062 1.875-1.062 4-2"/><path fill="#93beaf" d="M593 718h1c1.385 5.455 2.24 10.367 2 16l-2-1c-1.55-4.806-1.087-10.008-1-15"/><path fill="#a4d1c1" d="m690 676 8 1v1l-5 1v6c-2.762-2.762-2.579-5.207-3-9"/><path fill="#312f3b" d="M415 408h1c2.228 7.864 2.228 7.864 1 12q-.314 2.12-.562 4.25L416 428h-1z"/><path fill="#c1fcc9" d="m227 378 4 1-1 5-4-1z"/><path fill="#effef1" d="m429 315 2 1-10 10c0-4.322 2.15-5.884 5-9z"/><path fill="#0d2c24" d="M611 233c1.252 2.959 1.002 3.995-.187 7.063-1.731 2.805-3.048 4.22-5.813 5.937 1.413-4.827 3.43-8.716 6-13"/><path fill="#3fa36f" d="m669 200 2 1-3 5-4-1v2l-3-1v-2q1.932-1.044 3.875-2.062l2.18-1.16z"/><path fill="#3e9f68" d="M643 188h1l.332 1.793c.927 4.62 1.892 8.295 4.668 12.207l-2 2c-3.563-5.731-4.108-9.392-4-16"/><path fill="#1d2b32" d="M551 787v1c-4.763.953-9.167 1.083-14 1 4.074-4.074 8.678-2.94 14-2"/><path fill="#11342a" d="m724 611 2 1-1 13h-1q-.29-2.937-.562-5.875l-.317-3.305C723 613 723 613 724 611"/><path fill="#062819" d="M714 567c2 2 2 2 2.195 3.945L716 577l-3 1a585 585 0 0 1-.062-4.375l-.036-2.46C713 569 713 569 714 567"/><path fill="#103227" d="m260 400 1 3h2l1 12c-3.102-4.653-4.338-9.415-4-15"/><path fill="#0e121b" d="m584.625 364.938 3.602.027L591 365v1q-2.625.506-5.25 1l-2.953.563C580 368 580 368 576 368v-2c2.884-1.442 5.417-1.094 8.625-1.062"/><path fill="#9cd7ae" d="m263 342-5 8-2-2 2-5-2-1c3.01-.934 3.867-1.044 7 0"/><path fill="#082e23" d="M281 488c-2.688 2.252-4.646 3.882-8 5v-4c3.067-1.862 4.597-2.215 8-1"/><path fill="#0c1117" d="M493 274c7.75.75 7.75.75 10 3-1 1-1 1-4.562 1.063L495 278l1-3z"/><path fill="#122226" d="m686 626 2.813 2c2.983 2.266 2.983 2.266 6.187 2l-1 4c-3.362-1.44-5.592-3.248-8-6z"/><path fill="#b0e9bd" d="m198 442 1 2h2l1 10c-3.503-4.67-3.534-6.414-4-12"/><path fill="#a3a2a8" d="m406 396 2 3c-1.393 3.367-2.979 4.986-6 7 1.002-3.793 1.81-6.715 4-10"/><path fill="#152020" d="m550 382 2 1c-1.443 3.366-3.333 5.51-6 8 .313-3.375.313-3.375 1-7z"/><path fill="#252233" d="M409 294c-.187 1.813-.187 1.813-1 4-2.562 1.75-2.562 1.75-5 3 0-3 0-3 1.875-5.187C407 294 407 294 409 294"/><path fill="#a8d5bc" d="M612 274c3.438 1.188 3.438 1.188 7 3 .938 2.688.938 2.688 1 5q-2.008-1.426-4-2.875l-2.25-1.617L612 276z"/><path fill="#5daf78" d="M606 242c-.812 2.438-.812 2.438-2 5l-3 1-2-2c3.625-4 3.625-4 7-4"/><path fill="#9bb9b4" d="M678 617c2.34 2.128 3.707 4.116 5 7h-2l-1 4c-1.193-3.877-2-6.916-2-11"/><path fill="#67cb8b" d="m723 513 4 2c-2.174 2.5-3.73 3.436-7 4 0-3 0-3 1.5-4.687z"/><path fill="#082021" d="M209 469c7.483 6.15 7.483 6.15 10 10-4.427-1.391-6.994-3.479-10-7z"/><path fill="#0d101c" d="M597 388c5.75-.125 5.75-.125 8 1l-1 6-.125-1.875L603 391c-2.996-1.305-2.996-1.305-6-2z"/><path fill="#c3e0d1" d="m557 379 1 3-7 6-2-1z"/><path fill="#59b783" d="M398 185h1v5h-2l.438 3.875c.08.72.162 1.439.246 2.18.229 2.019.229 2.019 1.316 3.945l-3-1q-.079-2.655-.125-5.312l-.07-2.989C396 188 396 188 398 185"/><path fill="#061b19" d="M414 178v1l-13 2c2-3 2-3 4.813-3.75 3.021-.237 5.275-.02 8.187.75"/><path fill="#26252e" d="m481 791 9 1v3l-9-2z"/><path fill="#0f3e2a" d="M732 518c-1.812 2-1.812 2-4 4h-3v-2l-2-1c2.957-1.478 5.742-1.06 9-1"/><path fill="#c6e2ce" d="M743 494c3.795 1.491 5.61 3.757 8 7-3 0-3 0-5.687-2.375C743 496 743 496 743 494"/><path fill="#4abb75" d="m458 233 5 3-1 5c-3-2-3-2-3.687-5.125z"/><path fill="#309b60" d="M405 205h8l1 3c-5.538.37-5.538.37-7.875-1.5z"/><path fill="#479871" d="m713 659 2 1-6 7-3-1z"/><path fill="#223a36" d="M707 469h8l-1 3-7-1z"/><path fill="#8aaa9f" d="M726 460h1v12h-4v-2h2z"/><path fill="#4ea075" d="M204 457c3.254 2.834 4.52 4.686 5 9-4.875-4.625-4.875-4.625-6-8z"/><path fill="#11141e" d="M603 397c-1 3-1 3-3.375 4.25C597 402 597 402 594 401c6.609-4 6.609-4 9-4"/><path fill="#21272f" d="M411 380c0 3 0 3-1.531 4.605l-1.969 1.582-1.969 1.606L404 389c.809-4.793 3.26-6.135 7-9"/><path fill="#8adca1" d="M483 267c2.36 2.36 2.491 3.779 3 7h-5l2-1-.562-2.437L482 268z"/><path fill="#b8e3c7" d="m613 224 2 1v2c-2.312 2.188-2.312 2.188-5 4l-3-1z"/><path fill="#80ad98" d="M432 205c3.941 1.668 6.79 4.227 10 7l-2 2q-2.004-1.965-4-3.937l-2.25-2.215C432 206 432 206 432 205"/><path fill="#a9d4c4" d="M361 672h1a340 340 0 0 1-.375 4.313c-.07.8-.14 1.6-.21 2.425C361 681 361 681 359 684c-.286-8.571-.286-8.571 2-12"/><path fill="#0d1816" d="M408 465c6.152.586 6.152.586 8 1l1 2c-2.25.75-2.25.75-5 1-2.312-1.937-2.312-1.937-4-4"/><path fill="#a5f7b4" d="M227 393h1c.367 7.333.367 7.333-1.375 10.5C225 405 225 405 223 405c1.875-3.875 1.875-3.875 3-5q.553-3.492 1-7"/><path fill="#b3edbd" d="m226 358 3 1-5 5-3-1z"/><path fill="#20302b" d="M601 288h2l1 8c-2.062-1.75-2.062-1.75-4-4 .25-2.25.25-2.25 1-4"/><path fill="#449a6a" d="m468 251 4 2-2 5c-2-3-2-3-3-6z"/><path fill="#0c2d1b" d="m597 246 7 1v2h-2l-1 3a91 91 0 0 1-4-4z"/><path fill="#0f2028" d="m369 636 4 1v5l-4-1z"/><path fill="#acdac3" d="m371 599 1 2h2v7l-2-3-2 1z"/><path fill="#0e2b29" d="M775 545c3.765 1.722 6.15 3.992 9 7-3 0-3 0-4.605-1.531l-1.582-1.969-1.606-1.969z"/><path fill="#103b29" d="M745 531v3h-7v-2c2.463-1.231 4.28-1.072 7-1"/><path fill="#0b2421" d="m300 488 2 1c-1.75 6.75-1.75 6.75-4 9 .458-3.47.891-6.674 2-10"/><path fill="#cff3d8" d="m733 488 9 3v3c-3.937-1.312-6.227-2.92-9-6"/><path fill="#edfeee" d="M409 325h2c-1.555 3.817-4.036 6.192-7 9 1.242-3.44 2.557-6.252 5-9"/><path fill="#3d4f4a" d="M465 290h4l-3 6h-2z"/><path fill="#02281b" d="M724 537h8c-1.687 1.563-1.687 1.563-4 3-2.75-.312-2.75-.312-5-1z"/><path fill="#8cefa5" d="M317.563 488.938 320 489l-5 5c-.562-1.937-.562-1.937-1-4 1-1 1-1 3.563-1.062"/><path fill="#293235" d="M613 433h2v5l-6 2 1.438-1.25c1.725-1.932 2.128-3.232 2.562-5.75"/><path fill="#1c222b" d="M556 413h2c-1.293 2.884-2.66 4.872-5 7l-2-1a159 159 0 0 1 5-6"/><path fill="#21282c" d="M463 401h2c.625 2.813.625 2.813 1 6l-2 3z"/><path fill="#31403b" d="M461 374c2.125 3.188 2.502 5.265 3 9-2.062-1.687-2.062-1.687-4-4 .25-2.75.25-2.75 1-5"/><path fill="#afe4b7" d="M210 374h2l-1 5-4 1z"/><path fill="#e8f8f1" d="M490 264h8l-1 2c-3.062.625-3.062.625-6 1z"/><path fill="#58ae78" d="m598 249 3 2-2 6h-1a177 177 0 0 1-1-7z"/><path fill="#c4edca" d="M600 240h2l-2 6-3-1c1.875-3.875 1.875-3.875 3-5"/><path fill="#61ba83" d="m452 225 6 5-4 1c-2-3-2-3-2-6"/></svg>